<?xml version="1.0" encoding="utf-8"?>
<svg version="1.1" xmlns:xlink="http://www.w3.org/1999/xlink" width="40px" height="55px" xmlns="http://www.w3.org/2000/svg">
  <g transform="matrix(1 0 0 1 -153 -253 )">
    <path d="M 172.5 253.5  C 176.588 253.5  179.8 256.712  179.8 260.8  C 179.8 264.888  176.588 268.1  172.5 268.1  C 168.412 268.1  165.2 264.888  165.2 260.8  C 165.2 256.712  168.412 253.5  172.5 253.5  Z " fill-rule="nonzero" fill="#ffffff" stroke="none" />
    <path d="M 172.5 253.5  C 176.588 253.5  179.8 256.712  179.8 260.8  C 179.8 264.888  176.588 268.1  172.5 268.1  C 168.412 268.1  165.2 264.888  165.2 260.8  C 165.2 256.712  168.412 253.5  172.5 253.5  Z " stroke-width="1" stroke="#797979" fill="none" />
    <path d="M 153 276.4  L 192 276.4  M 172.5 268.6  L 172.5 287.5  M 156.9 307  L 172.5 287.5  M 172.5 287.5  L 188.1 307  " stroke-width="1" stroke="#797979" fill="none" />
  </g>
</svg>