<?xml version="1.0" encoding="utf-8"?>
<svg version="1.1" xmlns:xlink="http://www.w3.org/1999/xlink" width="10px" height="371px" preserveAspectRatio="xMidYMin meet" viewBox="279 553  8 371" xmlns="http://www.w3.org/2000/svg">
  <path d="M 342 919  L 288 919  A 5 5 0 0 1 283 914 L 283 563  A 5 5 0 0 1 288 558 L 290 558  A 3 3 0 0 1 293 555 A 3 3 0 0 1 296 558 L 320 558  A 3 3 0 0 1 323 555 A 3 3 0 0 1 326 558 L 341.5 558  A 1.5 1.5 0 0 1 343 559.5 L 343 561  " stroke-width="2" stroke="#0099cc" fill="none" />
</svg>