<?xml version="1.0" encoding="utf-8"?>
<svg version="1.1" xmlns:xlink="http://www.w3.org/1999/xlink" width="60px" height="80px" xmlns="http://www.w3.org/2000/svg">
  <g transform="matrix(1 0 0 1 -610 -338 )">
    <path d="M 669.5 350  C 669.5 350  669.5 406  669.5 406  C 669.5 412.608  656.1 417.5  640 417.5  C 623.9 417.5  610.5 412.608  610.5 406  C 610.5 406  610.5 350  610.5 350  C 610.5 343.392  623.9 338.5  640 338.5  C 656.1 338.5  669.5 343.392  669.5 350  Z " fill-rule="nonzero" fill="#ffffff" stroke="none" />
    <path d="M 610.5 350.35  C 610.5 343.714  623.48 338.5  640 338.5  C 656.52 338.5  669.5 343.714  669.5 350.35  C 669.5 350.35  669.5 405.65  669.5 405.65  C 669.5 412.286  656.52 417.5  640 417.5  C 623.48 417.5  610.5 412.286  610.5 405.65  C 610.5 405.65  610.5 350.35  610.5 350.35  Z " stroke-width="1" stroke="#797979" fill="none" />
    <path d="M 669.5 350  C 669.5 356.44  656.52 361.5  640 361.5  C 623.48 361.5  610.5 356.44  610.5 350  " stroke-width="1" stroke="#797979" fill="none" />
  </g>
</svg>